<?xml version="1.0" encoding="UTF-8"?>
<svg xmlns="http://www.w3.org/2000/svg" xmlns:xlink="http://www.w3.org/1999/xlink" viewBox="0 0 128 128" width="128px" height="128px">
<g id="surface7529376">
<path style=" stroke:none;fill-rule:nonzero;fill:rgb(20.392157%,59.607846%,85.882354%);fill-opacity:1;" d="M 79.335938 15.667969 C 78.066406 15.621094 76.773438 15.761719 75.5 16.097656 C 72.101562 17 69.300781 19.199219 67.601562 22.199219 L 64 28.699219 C 63.199219 30.097656 63.699219 32 65.101562 32.800781 L 82.402344 42.800781 C 82.902344 43.101562 83.402344 43.199219 83.902344 43.199219 C 84.199219 43.199219 84.398438 43.199219 84.699219 43.097656 C 85.5 42.898438 86.101562 42.398438 86.5 41.699219 L 90.199219 35.199219 C 91.898438 32.199219 92.398438 28.699219 91.5 25.300781 C 90.601562 21.902344 88.402344 19.101562 85.402344 17.402344 C 83.527344 16.339844 81.457031 15.746094 79.335938 15.667969 Z M 60.097656 38.125 C 59.128906 38.199219 58.199219 38.722656 57.699219 39.597656 L 27.5 92 C 24.101562 97.800781 22.199219 104.300781 21.800781 110.902344 L 21 123.800781 C 20.898438 124.902344 21.5 126 22.5 126.601562 C 23 126.898438 23.5 127 24 127 C 24.601562 127 25.199219 126.800781 25.699219 126.5 L 36.5 119.402344 C 42 115.699219 46.699219 110.800781 50 105 L 80.300781 52.601562 C 81.101562 51.199219 80.597656 49.300781 79.199219 48.5 C 77.800781 47.699219 75.898438 48.199219 75.101562 49.601562 L 44.800781 102 C 41.902344 106.898438 37.898438 111.199219 33.101562 114.402344 L 27.300781 118.199219 L 27.699219 111.300781 C 28 105.601562 29.699219 100 32.601562 95 L 62.902344 42.601562 C 63.699219 41.199219 63.199219 39.300781 61.800781 38.5 C 61.277344 38.199219 60.679688 38.082031 60.097656 38.128906 Z M 49 121 C 47.300781 121 46 122.300781 46 124 C 46 125.699219 47.300781 127 49 127 L 89 127 C 90.699219 127 92 125.699219 92 124 C 92 122.300781 90.699219 121 89 121 Z M 104 121 C 102.34375 121 101 122.34375 101 124 C 101 125.65625 102.34375 127 104 127 C 105.65625 127 107 125.65625 107 124 C 107 122.34375 105.65625 121 104 121 Z M 104 121 "/>
</g>
</svg>
